<svg xmlns="http://www.w3.org/2000/svg" viewBox="0 0 220 160">
  <rect width="220" height="160" rx="22" fill="#F0F8EE"/>
  <path d="M31 119c28-37 57-54 95-58 26-3 46 5 63 19-34 14-68 30-105 39z" fill="#90BE75" opacity=".75"/>
  <path d="M88 112V54" stroke="#5B8D4A" stroke-width="5" stroke-linecap="round"/>
  <path d="M88 67C71 47 57 55 57 72c13 1 23 0 31-5z" fill="#55A670"/>
  <path d="M90 76c16-20 30-12 31 5-13 3-23 2-31-5z" fill="#6EB45B"/>
  <path d="M88 92c-17-18-30-9-29 8 13 1 23-1 29-8z" fill="#76B768"/>
  <path d="M90 102c15-16 28-7 28 9-11 1-21-1-28-9z" fill="#4D9B52"/>
  <rect x="138" y="77" width="34" height="34" rx="6" fill="#FFF" stroke="#6E8C73" stroke-width="3"/>
  <path d="M145 99h20M145 93h20M145 87h20" stroke="#D6B157" stroke-width="4" stroke-linecap="round"/>
</svg>
